<!DOCTYPE svg PUBLIC "-//W3C//DTD SVG 1.1//EN" "http://www.w3.org/Graphics/SVG/1.1/DTD/svg11.dtd">
<!-- Uploaded to: SVG Repo, www.svgrepo.com, Transformed by: SVG Repo Mixer Tools -->
<svg fill="#000000" width="64px" height="64px" viewBox="0 0 24 24" xmlns="http://www.w3.org/2000/svg" transform="rotate(270)">
<g id="SVGRepo_bgCarrier" stroke-width="0"/>
<g id="SVGRepo_tracerCarrier" stroke-linecap="round" stroke-linejoin="round" stroke="#CCCCCC" stroke-width="4.656000000000001"/>
<g id="SVGRepo_iconCarrier">
<path d="M7,13v6a1,1,0,0,1-2,0V13a1,1,0,0,1,2,0Zm11,7a1,1,0,0,0,1-1V5a1,1,0,0,0-2,0V19A1,1,0,0,0,18,20Zm-6,0a1,1,0,0,0,1-1V9a1,1,0,0,0-2,0V19A1,1,0,0,0,12,20Z"/>
</g>
</svg>